<?xml version="1.0" standalone="no"?>
<!DOCTYPE svg PUBLIC "-//W3C//DTD SVG 20010904//EN"
 "http://www.w3.org/TR/2001/REC-SVG-20010904/DTD/svg10.dtd">
<svg version="1.0" xmlns="http://www.w3.org/2000/svg"
 width="240.000000pt" height="240.000000pt" viewBox="0 0 240.000000 240.000000"
 preserveAspectRatio="xMidYMid meet">
<metadata>
Created by potrace 1.14, written by Peter Selinger 2001-2017
</metadata>
<g transform="translate(0.000000,240.000000) scale(0.100000,-0.100000)"
fill="#000000" stroke="none">
<path d="M0 1200 l0 -1200 1200 0 1200 0 0 1200 0 1200 -1200 0 -1200 0 0
-1200z m1308 704 c17 -5 22 -14 22 -40 0 -29 -4 -34 -32 -42 -23 -6 -33 -14
-33 -27 0 -13 10 -21 33 -27 27 -7 32 -13 32 -38 0 -35 -10 -39 -125 -42 -72
-3 -80 -5 -80 -23 0 -18 8 -20 80 -23 111 -3 125 -7 125 -38 0 -19 7 -28 30
-35 27 -10 29 -15 32 -67 3 -53 4 -56 35 -64 25 -6 32 -14 35 -36 2 -21 8 -27
28 -27 23 0 25 3 25 50 0 47 -1 50 -32 59 -29 8 -33 13 -33 41 0 42 10 45 175
45 157 0 173 -4 177 -38 2 -20 11 -29 36 -36 l32 -9 0 -123 c0 -146 -2 -144
119 -144 l81 0 0 -30 c0 -27 3 -30 30 -30 l30 0 -7 -112 c-5 -106 -8 -118 -45
-190 -40 -77 -75 -108 -125 -108 -10 0 -27 -11 -37 -25 -21 -28 -71 -45 -136
-45 -40 0 -46 -3 -58 -30 -17 -38 -47 -39 -64 -2 -15 31 -44 38 -93 22 -24 -8
-35 -18 -35 -31 0 -22 4 -21 -109 -19 -77 1 -86 3 -104 26 -16 21 -26 25 -66
22 -37 -2 -48 -8 -56 -25 -9 -22 -16 -23 -106 -23 -92 0 -96 1 -107 25 -6 13
-22 27 -36 31 -15 4 -29 17 -35 36 -14 40 -54 37 -59 -4 l-3 -28 -99 0 c-73 0
-102 -4 -113 -14 -13 -13 -17 -13 -33 -1 -18 13 -17 14 14 15 29 0 32 3 32 29
0 29 -14 41 -51 41 -11 0 -19 -7 -19 -16 0 -58 -84 -45 -133 21 -67 91 -67 92
-67 466 l0 339 23 0 c29 0 47 18 47 47 0 22 4 23 73 24 39 1 158 4 262 8 l190
6 3 88 3 88 34 15 c23 9 35 21 35 34 0 10 8 24 18 29 18 11 202 15 240 5z
m-404 -1300 c5 -14 -8 -54 -19 -54 -14 0 -32 33 -28 50 6 24 38 27 47 4z"/>
<path d="M1124 1805 c-4 -9 -2 -21 4 -27 16 -16 47 -5 47 17 0 26 -42 34 -51
10z"/>
<path d="M1065 1740 c-4 -7 -3 -16 3 -22 14 -14 45 -2 40 15 -6 16 -34 21 -43
7z"/>
<path d="M994 1605 c-4 -9 -2 -21 4 -27 16 -16 47 -5 47 17 0 26 -42 34 -51
10z"/>
<path d="M533 1553 c-10 -4 -13 -44 -13 -157 0 -156 5 -176 41 -176 11 0 19
-9 21 -22 3 -22 6 -23 128 -23 120 0 125 1 128 21 2 14 14 24 35 31 l32 9 0
89 0 89 -32 9 c-31 9 -32 12 -35 66 -3 48 -6 56 -23 56 -19 0 -20 -8 -23 -127
-3 -136 -7 -145 -58 -132 -23 6 -23 8 -26 133 l-3 126 -25 0 -25 0 -3 -126
c-2 -120 -4 -127 -24 -132 -12 -3 -30 -2 -40 4 -16 9 -18 23 -18 128 0 119 -7
145 -37 134z"/>
<path d="M924 1537 c-3 -8 -4 -32 -2 -53 3 -34 6 -39 28 -39 23 0 25 3 25 50
0 44 -3 50 -23 53 -13 2 -24 -3 -28 -11z"/>
<path d="M1607 1474 c-4 -4 -7 -31 -7 -60 0 -52 -1 -54 -32 -62 l-33 -8 -3
-127 -3 -127 -32 -8 c-31 -8 -32 -10 -35 -69 -3 -66 -14 -78 -57 -67 -16 4
-25 14 -27 32 -4 37 -41 38 -47 2 -4 -32 -17 -40 -66 -40 -78 0 -84 5 -87 74
-3 58 -4 61 -28 61 -20 0 -26 -6 -28 -27 -4 -36 -13 -38 -187 -41 l-140 -2 -3
-56 c-3 -53 -5 -57 -31 -62 -37 -8 -104 3 -113 17 -4 6 -8 31 -8 54 0 39 -3
45 -30 55 -17 6 -33 21 -36 32 -10 30 -24 44 -40 38 -11 -4 -14 -27 -14 -99
l0 -94 -32 0 c-25 0 -36 -6 -44 -23 -17 -38 4 -47 111 -47 l95 0 0 -35 0 -35
53 0 c55 0 77 12 77 41 0 24 17 33 75 39 45 4 50 8 53 31 3 30 23 39 87 39 49
0 62 -8 66 -40 4 -23 8 -25 69 -27 102 -4 130 -11 130 -32 0 -28 26 -46 45
-31 8 7 15 18 15 26 0 19 19 28 75 34 42 4 50 8 53 28 7 47 82 54 82 7 0 -27
17 -35 69 -35 21 0 59 -3 84 -6 43 -6 46 -9 49 -38 3 -30 5 -31 56 -34 60 -3
82 8 82 44 0 23 3 24 65 24 l65 0 0 123 c0 82 -4 127 -12 135 -9 9 -53 10
-168 5 -86 -3 -173 -3 -193 1 l-37 7 0 64 0 64 33 6 c17 3 61 6 97 8 l65 2 0
120 0 120 -25 0 c-25 0 -25 -1 -28 -92 -3 -98 -9 -109 -57 -97 -23 6 -24 10
-27 97 -2 73 -6 92 -18 95 -9 1 -19 0 -23 -4z m251 -452 c8 -3 12 -26 12 -67
l0 -63 -62 -4 c-35 -3 -69 -1 -75 5 -21 15 -17 114 5 127 16 10 93 11 120 2z"/>
<path d="M1067 1344 c-4 -4 -7 -33 -7 -65 0 -57 -1 -59 -32 -67 -18 -4 -33
-15 -33 -23 0 -11 18 -14 90 -14 72 0 90 3 90 15 0 8 -14 18 -32 23 -31 9 -32
11 -35 71 -2 45 -7 62 -18 64 -9 1 -19 0 -23 -4z"/>
<path d="M1394 1197 c-3 -8 -4 -32 -2 -53 3 -34 6 -39 28 -39 23 0 25 3 25 50
0 44 -3 50 -23 53 -13 2 -24 -3 -28 -11z"/>
<path d="M1194 1135 c-4 -9 -2 -21 4 -27 16 -16 47 -5 47 17 0 26 -42 34 -51
10z"/>
<path d="M1677 733 c-11 -10 -8 -41 4 -49 16 -9 43 21 36 40 -7 16 -28 21 -40
9z"/>
</g>
</svg>
